<svg xmlns="http://www.w3.org/2000/svg" viewBox="0 0 244.19 41.7"><defs><style>.cls-1{fill:#108ee9;}.cls-2{fill:#191919;}</style></defs><title>资源 2</title><g id="图层_2" data-name="图层 2"><g id="图层_1-2" data-name="图层 1"><path class="cls-1" d="M10.14,18A2.82,2.82,0,0,1,7.7,21a2.85,2.85,0,0,1,2.44,3L9.59,37.49c0,.93.34,1.68,1.26,1.68h2.61V41.7H5.85a3,3,0,0,1-3-2.95l.55-13.88c0-1.68-1.05-2.23-3.37-2.31v-3c2.31-.08,3.41-.59,3.37-2.31L2.82,2.95A3,3,0,0,1,5.85,0h7.62V2.52H10.85c-.93,0-1.26.76-1.26,1.68Z"/><path class="cls-1" d="M48.68,4.21c0-.93-.34-1.68-1.26-1.68H44.81V0h7.62a3,3,0,0,1,3,2.95l-.55,14.26c0,1.72,1.05,2.23,3.37,2.31v3c-2.31.08-3.41.63-3.37,2.31l.55,13.88a3,3,0,0,1-3,2.95H44.81V39.17h2.61c.93,0,1.26-.76,1.26-1.68l-.55-13.42a2.82,2.82,0,0,1,2.4-3,2.79,2.79,0,0,1-2.4-3Z"/><circle class="cls-1" cx="29.43" cy="10.51" r="5.72"/><circle class="cls-1" cx="29.43" cy="31.62" r="5.72"/><path class="cls-2" d="M74.86,4.56a2.57,2.57,0,0,1,2.49-2.66h20a5.57,5.57,0,0,1,5.31,5.75v7a5.65,5.65,0,0,1-4.47,5.71h.93a5.61,5.61,0,0,1,5.31,5.8v7.73a5.58,5.58,0,0,1-5.31,5.79H77.35A2.58,2.58,0,0,1,74.86,37ZM93.41,19.49A3.77,3.77,0,0,0,97,15.59V8.07A3.73,3.73,0,0,0,93.41,4.2H81.9a1.52,1.52,0,0,0-1.41,1.57V19.49Zm1.81,17.83a3.67,3.67,0,0,0,3.5-3.86V25.65a3.7,3.7,0,0,0-3.5-3.86H80.49v14a1.48,1.48,0,0,0,1.41,1.53Z"/><path class="cls-2" d="M109.1,4.32a2.71,2.71,0,0,1,2.78-2.7h21.53a6,6,0,0,1,6,5.83V16.6a6,6,0,0,1-6,5.88H132l10.18,17.26h-7.48l-9.5-17.26h-9.78V39.74H109.1ZM129,20.14a4,4,0,0,0,4-3.9V7.86A3.93,3.93,0,0,0,129,4H117a1.55,1.55,0,0,0-1.57,1.57V20.14Z"/><path class="cls-2" d="M145.12,39.74,159.72,3.32a2.72,2.72,0,0,1,2.49-1.69h3.06a2.68,2.68,0,0,1,2.5,1.69l14.65,36.42H176l-5.51-13.56h-13.6l-5.43,13.56Zm12.72-15.86h11.79L163.71,9.27Z"/><path class="cls-2" d="M207.29,25.73h5.19V28c0,6.36-4.39,11.59-9.7,11.59H195.3c-5.31,0-9.66-5.23-9.66-11.59V13.3c0-6.4,4.35-11.63,9.66-11.63h7.48c5.31,0,9.7,5.23,9.7,11.63v2.62h-5.19V13.7c0-5.35-3.58-9.7-8.21-9.7h-.24c-4.43,0-8,4.35-8,9.7V27.54c0,5.35,3.62,9.66,8.29,9.66s8.21-4.35,8.21-9.66Z"/><path class="cls-2" d="M241.77,22.27H223V35.79c0,1,.48,1.53,1.33,1.53h19.84v2.29H219.56A2.64,2.64,0,0,1,216.95,37V4.52a2.62,2.62,0,0,1,2.62-2.66h24.63V4.16H224.35A1.37,1.37,0,0,0,223,5.69V20h18.75Z"/></g></g></svg>